<mxfile host="app.diagrams.net" modified="2023-06-30T17:32:52.282Z" agent="Mozilla/5.0 (X11; Ubuntu; Linux x86_64; rv:109.0) Gecko/20100101 Firefox/114.0" version="21.5.0" etag="CJBLmhtVDbshtK626Bws" type="github">
  <diagram name="Page-1" id="eEUZTZOk_lmZgW6A_ChM">
    <mxGraphModel>
      <root>
        <mxCell id="0" />
        <mxCell id="1" parent="0" />
      </root>
    </mxGraphModel>
  </diagram>
</mxfile>
